<svg xmlns="http://www.w3.org/2000/svg" width="16" height="16" viewBox="0 0 16 16">
  <g fill="none">
    <path fill="#0096AA" d="M9.24,0.97 L6.39,0.04 C5.97323307,-0.0737772672 5.52876061,0.0717579624 5.26,0.41 L0.18,7.41 C-0.0582420284,7.77089402 -0.0582420284,8.23910598 0.18,8.6 L5.26,15.6 C5.52876061,15.938242 5.97323307,16.0837773 6.39,15.97 L9.18,15.06 L4.09,8.06 L9.24,0.97 Z"/>
    <path fill="#305182" d="M15.31,12.32 L15.31,3.67 C15.3054745,3.2241238 15.0273951,2.82686748 14.61,2.67 L10.61,1.36 L5.75,8.01 L10.55,14.57 L14.65,13.24 C15.0260036,13.0824766 15.2812682,12.7266532 15.31,12.32 L15.31,12.32 Z"/>
  </g>
</svg>
