<svg id="Layer_1" data-name="Layer 1" xmlns="http://www.w3.org/2000/svg" viewBox="0 0 15.32 16"><defs><style>.cls-1{fill:#0096aa;}.cls-2{fill:#305182;}</style></defs><title>favicon</title><path class="cls-1" d="M293.26,272.36l-2.85-.93a1.08,1.08,0,0,0-1.13.37l-5.08,7a1.08,1.08,0,0,0,0,1.19l5.08,7a1.08,1.08,0,0,0,1.13.37l2.79-.91-5.09-7Z" transform="translate(-284.02 -271.39)"/><path class="cls-2" d="M299.33,283.71v-8.65a1.08,1.08,0,0,0-.7-1l-4-1.31-4.86,6.65,4.8,6.56,4.1-1.33A1.08,1.08,0,0,0,299.33,283.71Z" transform="translate(-284.02 -271.39)"/></svg>