<svg xmlns="http://www.w3.org/2000/svg" width="223" height="36" viewBox="0 0 223 36">
  <g fill="none">
    <path fill="#0096AA" d="M20.28,2.12 L14.03,0.12 C13.1177506,-0.132500928 12.142739,0.182018946 11.55,0.92 L0.39,16.28 C-0.127812354,17.0693216 -0.127812354,18.0906784 0.39,18.88 L11.55,34.24 C12.142739,34.9779811 13.1177506,35.2925009 14.03,35.04 L20.14,33.04 L8.98,17.67 L20.28,2.12 Z"/>
    <path fill="#305182" d="M33.61,27.04 L33.61,8.04 C33.5672314,7.09420025 32.9656702,6.26459623 32.08,5.93 L23.22,3.05 L12.56,17.65 L23.09,32.05 L32.09,29.13 C32.9653371,28.7951487 33.5611372,27.9759235 33.61,27.04 L33.61,27.04 Z"/>
    <path fill="#2F3640" d="M61.49,30.31 C61.76,30.66 61.65,31.06 61.13,31.06 L57.98,31.06 C57.4949892,31.026564 57.0626932,30.7421587 56.84,30.31 L48.01,19.15 L47.01,19.15 L47.01,30.31 C47.01,30.82 46.81,31.06 46.26,31.06 L43.85,31.06 C43.34,31.06 43.14,30.82 43.14,30.31 L43.14,4.99 C43.14,4.48 43.34,4.24 43.85,4.24 L46.26,4.24 C46.81,4.24 47.01,4.48 47.01,4.99 L47.01,16.27 L47.98,16.27 L56.22,4.99 C56.4913256,4.5673511 56.9403814,4.29129225 57.44,4.24 L60.04,4.24 C60.55,4.24 60.67,4.6 60.39,4.99 L51.28,17.47 L61.49,30.31 Z"/>
    <path fill="#2F3640" d="M61.5 17.28C61.5 14.2 63.72 12.13 69.02 12.13 74.32 12.13 76.53 14.19 76.53 17.28L76.53 26.22C76.53 29.3 74.31 31.36 69.02 31.36 63.73 31.36 61.5 29.3 61.5 26.22L61.5 17.28zM72.95 17.58C72.95 15.97 71.83 15.07 69.01 15.07 66.19 15.07 65.07 15.97 65.07 17.58L65.07 25.92C65.07 27.54 66.2 28.44 69.01 28.44 71.82 28.44 72.95 27.54 72.95 25.92L72.95 17.58zM90.83 29.22C89.1577723 30.6409497 87.02401 31.4019916 84.83 31.36 81.37 31.36 79.54 29.36 79.54 26.59L79.54 13.19C79.54 12.66 79.73 12.44 80.22 12.44L82.4 12.44C82.89 12.44 83.11 12.67 83.11 13.19L83.11 25.7C83.11 27.28 83.82 28.18 85.89 28.18 87.6838913 28.1303197 89.4064415 27.4667142 90.77 26.3L90.77 13.2C90.77 12.67 90.96 12.45 91.45 12.45L93.67 12.45C94.15 12.45 94.34 12.68 94.34 13.2L94.34 30.36C94.34 30.88 94.15 31.07 93.67 31.07L91.67 31.07C91.14 31.07 90.99 30.88 90.96 30.36L90.83 29.22zM100.29 12.47C100.81 12.47 100.96 12.7 101 13.18L101.07 14.38C102.815447 12.9138468 105.030743 12.1257128 107.31 12.16 110.8 12.16 112.61 14.16 112.61 16.97L112.61 30.34C112.61 30.86 112.42 31.09 111.93 31.09L109.75 31.09C109.26 31.09 109.03 30.86 109.03 30.34L109.03 17.8C109.03 16.26 108.32 15.32 106.25 15.32 104.383067 15.3866341 102.588892 16.0607666 101.14 17.24L101.14 30.3C101.14 30.82 100.95 31.05 100.47 31.05L98.29 31.05C97.77 31.05 97.57 30.82 97.57 30.3L97.57 13.15C97.57 12.66 97.76 12.44 98.29 12.44L100.29 12.47zM124.21 12.47C124.7 12.47 124.93 12.66 124.93 13.15L124.93 14.65C124.93 15.18 124.7 15.4 124.21 15.4L120.34 15.4 120.34 25.5C120.34 27.08 121.34 27.98 124.13 27.98L124.84 27.98C125.33 27.98 125.55 28.2 125.55 28.73L125.55 30.31C125.55 30.83 125.33 31.02 124.84 31.02L123.6 31.02C118.31 31.02 116.73 29.18 116.73 25.87L116.73 15.47 114.66 15.47C114.14 15.47 113.95 15.24 113.95 14.72L113.95 13.37C113.95 12.88 114.14 12.69 114.66 12.66L116.5 12.51 116.72 12.51 116.72 8.72C116.72 8.2 116.95 7.97 117.43 7.97L119.65 7.97C120.14 7.97 120.33 8.2 120.33 8.72L120.33 12.47 124.21 12.47zM131.48 9.62C131.48 10.43 131.14 11.54 128.48 11.54 125.82 11.54 125.48 10.43 125.48 9.62L125.48 7.3C125.48 6.49 125.84 5.38 128.48 5.38 131.12 5.38 131.48 6.49 131.48 7.3L131.48 9.62zM130.66 7.23C130.66 6.67 130.26 6.12 128.49 6.12 126.72 6.12 126.3 6.66 126.3 7.23L126.3 9.7C126.3 10.26 126.71 10.81 128.49 10.81 130.27 10.81 130.66 10.27 130.66 9.71L130.66 7.23zM129.42 8.89L129.88 10.03C129.88 10.13 129.88 10.21 129.71 10.21L129.22 10.21C129.11 10.21 129.1 10.15 129.05 10.03L128.62 9.03 127.98 9.03 127.98 10.03C127.98 10.15 127.98 10.21 127.81 10.21L127.31 10.21C127.19 10.21 127.14 10.15 127.14 10.03L127.14 6.95C127.14 6.82 127.19 6.77 127.31 6.77L128.65 6.77C129.74 6.77 129.97 7.29 129.97 7.77L129.97 8.03C129.996272 8.40897697 129.773614 8.76118118 129.42 8.9L129.42 8.89zM127.97 7.4L127.97 8.4 128.56 8.4C128.89 8.4 129.12 8.24 129.12 8.01L129.12 7.82C129.12 7.56 128.9 7.41 128.56 7.41L127.97 7.4z"/>
    <path fill="#C1B8B3" d="M138.46 9.03L143.06 9.03C145.4 9.03 146.47 9.93 146.47 11.58 146.510123 12.6901599 145.658695 13.6302785 144.55 13.7L144.55 13.7C145.757202 13.721901 146.721175 14.7126513 146.71 15.92 146.71 17.55 145.55 18.47 143.27 18.47L138.45 18.47 138.46 9.03zM142.62 12.9C143.506667 12.9 143.95 12.5666667 143.95 11.9 143.95 11.2333333 143.506667 10.9 142.62 10.9L140.84 10.9 140.84 12.96 142.62 12.9zM142.86 16.76C143.75 16.76 144.19 16.39 144.19 15.7 144.19 15.01 143.75 14.7 142.86 14.7L140.86 14.7 140.86 16.79 142.86 16.76zM155.17 14.91C155.190283 16.4432544 154.282287 17.8368508 152.871525 18.4377096 151.460763 19.0385683 149.826785 18.7276261 148.735321 17.6505994 147.643857 16.5735726 147.311186 14.9438801 147.893207 13.5252428 148.475229 12.1066055 149.856611 11.1801342 151.39 11.18 152.413246 11.0705179 153.431582 11.4262506 154.164085 12.149064 154.896588 12.8718774 155.265848 13.8853867 155.17 14.91L155.17 14.91zM150.04 14.91C150.04 16.31 150.48 16.91 151.39 16.91 152.3 16.91 152.74 16.32 152.74 14.91 152.74 13.5 152.3 12.91 151.39 12.91 150.48 12.91 150.04 13.47 150.04 14.91zM163.65 14.91C163.670283 16.4432544 162.762287 17.8368508 161.351525 18.4377096 159.940763 19.0385683 158.306785 18.7276261 157.215321 17.6505994 156.123857 16.5735726 155.791186 14.9438801 156.373207 13.5252428 156.955229 12.1066055 158.336611 11.1801342 159.87 11.18 160.893246 11.0705179 161.911582 11.4262506 162.644085 12.149064 163.376588 12.8718774 163.745848 13.8853867 163.65 14.91L163.65 14.91zM158.52 14.91C158.52 16.31 158.96 16.91 159.87 16.91 160.78 16.91 161.22 16.32 161.22 14.91 161.22 13.5 160.78 12.91 159.87 12.91 158.96 12.91 158.52 13.47 158.52 14.91zM164.39 17.38L165.65 16C166.122503 16.6937411 166.934135 17.0765864 167.77 17 168.44 17 168.84 16.8 168.84 16.5 168.84 16.2 168.5 16.06 167.54 15.86 165.36 15.43 164.54 14.73 164.54 13.55 164.54 12.37 165.66 11.17 167.99 11.17 169.243183 11.0228051 170.48351 11.5333056 171.27 12.52L170.01 13.75C169.589904 13.0872002 168.843391 12.704373 168.06 12.75 167.34 12.75 166.97 13.01 166.97 13.29 166.97 13.57 167.29 13.76 168.29 13.95 170.41 14.32 171.29 14.95 171.29 16.23 171.29 17.51 170.19 18.58 167.88 18.58 166.59511 18.7278673 165.312263 18.286774 164.39 17.38zM177.61 18.09C177.006004 18.4512678 176.313746 18.6381776 175.61 18.63 173.99 18.63 172.99 18 172.97 16.34L172.97 13.06 171.74 13.06 171.74 11.33 172.98 11.33 172.98 9.73 175.42 9.06 175.42 11.34 177.57 11.34 177.57 13.07 175.42 13.07 175.42 15.95C175.359305 16.2201764 175.437346 16.5028263 175.628068 16.7035858 175.818789 16.9043453 176.097068 16.9967687 176.37 16.95 176.729068 16.9536182 177.079739 16.8414034 177.37 16.63L177.61 18.09zM190.4 10.6L189.01 12.2C188.455691 11.283123 187.439624 10.7481485 186.37 10.81 185.37 10.81 184.82 11.21 184.82 11.76 184.82 12.31 185.34 12.51 186.68 12.76 189.3 13.23 190.32 14.08 190.32 15.76 190.32 17.61 188.6 18.67 186.32 18.67 184.04 18.67 182.91 18.1 181.98 17.06L183.24 15.34C183.908114 16.320898 185.059063 16.8580077 186.24 16.74 187.3 16.74 187.82 16.43 187.82 15.88 187.82 15.33 187.28 15.19 185.99 14.95 183.75 14.5 182.31 13.85 182.31 11.95 182.31 10.05 183.79 8.87 186.38 8.87 187.916555 8.78770276 189.403415 9.42757038 190.4 10.6L190.4 10.6zM198.86 17.05L198.67 18.41C198.36234 18.5723262 198.017663 18.651602 197.67 18.64 196.67 18.64 196.04 18.31 195.82 17.54 195.235327 18.3456621 194.257248 18.7675786 193.27 18.64 191.85 18.64 191.05 18.01 191.05 16.85 191.05 15.69 191.81 14.9 193.84 14.5L195.46 14.18 195.46 13.92C195.476557 13.6445496 195.378556 13.3745005 195.189195 13.173778 194.999835 12.9730554 194.735947 12.8595028 194.46 12.86 194.136052 12.8208467 193.810237 12.916435 193.558789 13.1243997 193.307341 13.3323644 193.152321 13.6344584 193.13 13.96L191.13 13.39C191.37 12.03 192.49 11.18 194.44 11.18 196.65 11.18 197.87 12.08 197.87 13.93L197.87 16.54C197.87 16.9133333 198.043333 17.1 198.39 17.1 198.548372 17.1102871 198.707337 17.093376 198.86 17.05zM195.49 16.05L195.49 15.47 194.33 15.74C193.73 15.88 193.48 16.08 193.48 16.49 193.48 16.9 193.74 17.11 194.18 17.11 194.78 17.06 195.49 16.7 195.49 16.04L195.49 16.05zM202.08 16.01C202.08 16.64 202.24 16.9 202.74 16.9 202.989174 16.9009567 203.236474 16.856917 203.47 16.77L203.31 18.28C202.8507 18.5212493 202.33878 18.6449347 201.82 18.64 200.29 18.64 199.64 17.97 199.64 16.38L199.64 8.3 202.08 8.3 202.08 16.01zM211.12 15.61L206.23 15.61C206.250081 15.9856019 206.422609 16.3367317 206.70766 16.5821406 206.992712 16.8275494 207.365586 16.9459697 207.74 16.91 208.311505 16.9922006 208.862376 16.6625125 209.06 16.12L211.06 16.75C210.64 18 209.43 18.63 207.76 18.63 205.25 18.63 203.89 17.27 203.89 14.9 203.780951 13.8793991 204.14018 12.8643475 204.866932 12.1395382 205.593685 11.4147288 206.609695 11.0582192 207.63 11.17 208.615871 11.0694497 209.594153 11.4214 210.290009 12.1269749 210.985865 12.8325497 211.324214 13.8156185 211.21 14.8 211.204452 15.0721593 211.17433 15.343261 211.12 15.61zM206.22 14.29L208.91 14.29C208.8 13.37 208.35 12.88 207.59 12.88 206.83 12.88 206.37 13.33 206.22 14.29zM211.88 17.38L213.14 16C213.612503 16.6937411 214.424135 17.0765864 215.26 17 215.93 17 216.33 16.8 216.33 16.5 216.33 16.2 215.99 16.06 215.03 15.86 212.85 15.43 212.03 14.73 212.03 13.55 212.03 12.37 213.15 11.17 215.48 11.17 216.733183 11.0228051 217.97351 11.5333056 218.76 12.52L217.5 13.75C217.079904 13.0872002 216.333391 12.704373 215.55 12.75 214.83 12.75 214.46 13.01 214.46 13.29 214.46 13.57 214.78 13.76 215.78 13.95 217.9 14.32 218.78 14.95 218.78 16.23 218.78 17.51 217.68 18.58 215.37 18.58 214.08511 18.7278673 212.802263 18.286774 211.88 17.38zM222.55 17.33C222.607894 17.9226789 222.295002 18.4898548 221.762779 18.756985 221.230555 19.0241151 220.588807 18.9360867 220.148173 18.5355102 219.707538 18.1349337 219.558928 17.5044535 219.774276 16.9492552 219.989624 16.3940569 220.524502 16.0286855 221.12 16.03 221.489581 15.9793562 221.862604 16.0950798 222.138627 16.3460098 222.41465 16.5969399 222.565296 16.9572794 222.55 17.33zM138.46 21.47L143.06 21.47C145.4 21.47 146.47 22.37 146.47 24.02 146.510123 25.1301599 145.658695 26.0702785 144.55 26.14L144.55 26.14C145.757202 26.161901 146.721175 27.1526513 146.71 28.36 146.71 29.99 145.55 30.91 143.27 30.91L138.45 30.91 138.46 21.47zM142.62 25.34C143.506667 25.34 143.95 25.0066667 143.95 24.34 143.95 23.6733333 143.506667 23.34 142.62 23.34L140.84 23.34 140.84 25.4 142.62 25.34zM142.86 29.2C143.75 29.2 144.19 28.83 144.19 28.14 144.19 27.45 143.75 27.14 142.86 27.14L140.86 27.14 140.86 29.23 142.86 29.2zM154.85 28.03L149.98 28.03C150.000081 28.4056019 150.172609 28.7567317 150.45766 29.0021406 150.742712 29.2475494 151.115586 29.3659697 151.49 29.33 152.061505 29.4122006 152.612376 29.0825125 152.81 28.54L154.81 29.17C154.39 30.42 153.18 31.05 151.51 31.05 149 31.05 147.64 29.69 147.64 27.32 147.530951 26.2993991 147.89018 25.2843475 148.616932 24.5595382 149.343685 23.8347288 150.359695 23.4782192 151.38 23.59 152.365871 23.4894497 153.344153 23.8414 154.040009 24.5469749 154.735865 25.2525497 155.074214 26.2356185 154.96 27.22 154.947873 27.4927682 154.911056 27.7638765 154.85 28.03L154.85 28.03zM149.95 26.71L152.64 26.71C152.53 25.79 152.08 25.3 151.32 25.3 150.56 25.3 150.1 25.76 149.98 26.72L149.95 26.71zM163.51 29.47L163.32 30.83C163.01234 30.9923262 162.667663 31.071602 162.32 31.06 161.32 31.06 160.69 30.73 160.47 29.96 159.885327 30.7656621 158.907248 31.1875786 157.92 31.06 156.5 31.06 155.7 30.43 155.7 29.27 155.7 28.11 156.46 27.32 158.49 26.92L160.11 26.6 160.11 26.34C160.126557 26.0645496 160.028556 25.7945005 159.839195 25.593778 159.649835 25.3930554 159.385947 25.2795028 159.11 25.28 158.786052 25.2408467 158.460237 25.336435 158.208789 25.5443997 157.957341 25.7523644 157.802321 26.0544584 157.78 26.38L155.78 25.81C156.02 24.45 157.14 23.6 159.09 23.6 161.3 23.6 162.52 24.5 162.52 26.35L162.52 28.96C162.52 29.3333333 162.693333 29.52 163.04 29.52 163.198372 29.5302871 163.357337 29.513376 163.51 29.47L163.51 29.47zM160.14 28.47L160.14 27.85 158.98 28.12C158.38 28.26 158.13 28.46 158.13 28.87 158.13 29.28 158.39 29.49 158.83 29.49 159.44 29.47 160.14 29.12 160.14 28.47L160.14 28.47zM169.24 30.47C168.636004 30.8312678 167.943746 31.0181776 167.24 31.01 165.62 31.01 164.62 30.38 164.6 28.72L164.6 25.47 163.37 25.47 163.37 23.74 164.6 23.74 164.6 22.14 166.98 21.47 166.98 23.75 169.13 23.75 169.13 25.47 166.98 25.47 166.98 28.35C166.919305 28.6201764 166.997346 28.9028263 167.188068 29.1035858 167.378789 29.3043453 167.657068 29.3967687 167.93 29.35 168.289068 29.3536182 168.639739 29.2414034 168.93 29.03L169.24 30.47z"/>
    <polygon fill="#C1B8B3" points="176.73 23.36 176.73 25.36 180.63 25.36 180.63 27.27 176.73 27.27 176.73 30.91 174.26 30.91 174.26 21.47 181.61 21.47 181.61 23.38"/>
    <path fill="#C1B8B3" d="M187.69 23.76L187.43 25.82C187.152295 25.6758032 186.842845 25.6035982 186.53 25.61 186.083145 25.5908208 185.649786 25.7656057 185.341279 26.089443 185.032771 26.4132803 184.87919 26.8545988 184.92 27.3L184.92 30.91 182.48 30.91 182.48 23.74 184.63 23.74 184.73 25.29C184.962599 24.2801119 185.874009 23.5735599 186.91 23.6 187.179163 23.5888588 187.44696 23.6437916 187.69 23.76zM195.79 29.47L195.6 30.83C195.29234 30.9923262 194.947663 31.071602 194.6 31.06 193.6 31.06 192.97 30.73 192.75 29.96 192.165327 30.7656621 191.187248 31.1875786 190.2 31.06 188.78 31.06 187.98 30.43 187.98 29.27 187.98 28.11 188.74 27.32 190.77 26.92L192.39 26.6 192.39 26.34C192.406557 26.0645496 192.308556 25.7945005 192.119195 25.593778 191.929835 25.3930554 191.665947 25.2795028 191.39 25.28 191.066052 25.2408467 190.740237 25.336435 190.488789 25.5443997 190.237341 25.7523644 190.082321 26.0544584 190.06 26.38L188.06 25.81C188.3 24.45 189.42 23.6 191.37 23.6 193.58 23.6 194.8 24.5 194.8 26.35L194.8 28.96C194.8 29.3333333 194.973333 29.52 195.32 29.52 195.478372 29.5302871 195.637337 29.513376 195.79 29.47L195.79 29.47zM192.42 28.47L192.42 27.85 191.26 28.12C190.66 28.26 190.41 28.46 190.41 28.87 190.41 29.28 190.67 29.49 191.11 29.49 191.72 29.47 192.42 29.12 192.42 28.47zM203.74 23.75L203.74 30.92 201.56 30.92 201.49 29.59C201.060707 30.5592211 200.066836 31.1523374 199.01 31.07 198.326537 31.1482046 197.645433 30.9051429 197.165897 30.4119059 196.686361 29.9186689 196.462578 29.2309893 196.56 28.55L196.56 23.76 198.98 23.76 198.98 27.93C198.98 28.93 199.34 29.21 199.98 29.21 200.62 29.21 201.3 28.71 201.3 27.56L201.3 23.76 203.74 23.75zM212.61 20.71L212.61 30.91 210.42 30.91 210.33 29.55C209.930701 30.4832467 209.00487 31.0806847 207.99 31.06 206.14 31.06 204.99 29.7 204.99 27.36 204.99 25.02 206.11 23.61 207.99 23.61 208.916935 23.5811177 209.769777 24.1141437 210.15 24.96L210.15 20.72 212.61 20.71zM210.17 27.62L210.17 27.05C210.11 25.99 209.63 25.4 208.84 25.4 208.05 25.4 207.49 25.99 207.49 27.33 207.49 28.67 208.01 29.27 208.84 29.27 209.67 29.27 210.12 28.71 210.18 27.62L210.17 27.62zM216.84 29.75C216.897894 30.3426789 216.585002 30.9098548 216.052779 31.176985 215.520555 31.4441151 214.878807 31.3560867 214.438173 30.9555102 213.997538 30.5549337 213.848928 29.9244535 214.064276 29.3692552 214.279624 28.8140569 214.814502 28.4486855 215.41 28.45 215.779581 28.3993562 216.152604 28.5150798 216.428627 28.7660098 216.70465 29.0169399 216.855296 29.3772794 216.84 29.75z"/>
  </g>
</svg>
