<svg id="Layer_1" data-name="Layer 1" xmlns="http://www.w3.org/2000/svg" viewBox="0 0 131.48 35.11"><defs><style>.cls-1{fill:#0096aa;}.cls-2{fill:#305182;}.cls-3{fill:#2f3640;}</style></defs><title>logo</title><path class="cls-1" d="M304.3,211.95l-6.25-2a2.37,2.37,0,0,0-2.48.8l-11.16,15.36a2.37,2.37,0,0,0,0,2.6L295.57,244a2.37,2.37,0,0,0,2.48.8l6.11-2L293,227.5Z" transform="translate(-284.02 -209.83)"/><path class="cls-2" d="M317.63,236.87v-19a2.37,2.37,0,0,0-1.53-2.11l-8.86-2.88-10.66,14.6,10.53,14.4,9-2.92A2.37,2.37,0,0,0,317.63,236.87Z" transform="translate(-284.02 -209.83)"/><path class="cls-3" d="M345.51,240.14c.27.35.16.75-.36.75H342a1.39,1.39,0,0,1-1.14-.75L332.07,229h-1v11.16c0,.51-.2.75-.75.75h-2.41c-.51,0-.71-.24-.71-.75V214.82c0-.51.2-.75.71-.75h2.41c.55,0,.75.24.75.75v11.28H332l8.24-11.28a1.65,1.65,0,0,1,1.22-.75h2.6c.51,0,.63.36.35.75l-9.15,12.46Z" transform="translate(-284.02 -209.83)"/><path class="cls-3" d="M345.52,227.11c0-3.08,2.22-5.15,7.52-5.15s7.51,2.06,7.51,5.15V236c0,3.08-2.22,5.14-7.51,5.14s-7.52-2.06-7.52-5.14Zm11.45.3c0-1.61-1.12-2.51-3.94-2.51s-3.94.9-3.94,2.51v8.34c0,1.62,1.13,2.52,3.94,2.52s3.94-.9,3.94-2.52Z" transform="translate(-284.02 -209.83)"/><path class="cls-3" d="M374.85,239.05a9,9,0,0,1-6,2.14c-3.46,0-5.29-2-5.29-4.77V223c0-.53.19-.75.68-.75h2.18c.49,0,.71.23.71.75v12.51c0,1.58.71,2.48,2.78,2.48a7.84,7.84,0,0,0,4.88-1.88V223c0-.53.19-.75.68-.75h2.22c.48,0,.67.23.67.75v17.16c0,.52-.19.71-.67.71h-2c-.53,0-.68-.19-.71-.71Z" transform="translate(-284.02 -209.83)"/><path class="cls-3" d="M384.31,222.26c.52,0,.67.23.71.71l.07,1.2a9.48,9.48,0,0,1,6.24-2.22c3.49,0,5.3,2,5.3,4.81v13.37c0,.52-.19.75-.68.75h-2.18c-.49,0-.72-.23-.72-.75V227.63c0-1.54-.71-2.48-2.78-2.48a8.58,8.58,0,0,0-5.11,1.92v13.06c0,.52-.19.75-.67.75h-2.18c-.52,0-.72-.23-.72-.75V223c0-.49.19-.71.72-.71Z" transform="translate(-284.02 -209.83)"/><path class="cls-3" d="M408.23,222.34c.49,0,.72.19.72.68v1.5c0,.53-.23.75-.72.75h-3.87v10.1c0,1.58,1,2.48,3.79,2.48h.71c.49,0,.71.22.71.75v1.58c0,.52-.22.71-.71.71h-1.24c-5.29,0-6.87-1.84-6.87-5.15V225.27h-2.07c-.52,0-.71-.23-.71-.75v-1.31c0-.49.19-.68.71-.71l1.84-.15h.22v-3.79c0-.52.23-.75.71-.75h2.22c.49,0,.68.23.68.75v3.79Z" transform="translate(-284.02 -209.83)"/><path class="cls-3" d="M415.5,219.45c0,.81-.34,1.92-3,1.92s-3-1.11-3-1.92v-2.32c0-.81.36-1.92,3-1.92s3,1.11,3,1.92Zm-.82-2.39c0-.56-.4-1.11-2.17-1.11s-2.19.54-2.19,1.11v2.47c0,.56.41,1.11,2.19,1.11s2.17-.54,2.17-1.1Zm-1.24,1.66.46,1.14c0,.1,0,.18-.17.18h-.49c-.11,0-.12-.06-.17-.18l-.43-1H412v1c0,.12,0,.18-.17.18h-.5c-.12,0-.17-.06-.17-.18v-3.08c0-.13.05-.18.17-.18h1.34c1.09,0,1.32.52,1.32,1v.26a.87.87,0,0,1-.55.87m-1.45-1.5v1h.59c.33,0,.56-.16.56-.39v-.19c0-.26-.22-.41-.56-.41Z" transform="translate(-284.02 -209.83)"/></svg>