<svg xmlns="http://www.w3.org/2000/svg" width="132" height="35" viewBox="0 0 132 35">
  <g fill="none">
    <path fill="#0096AA" d="M20.28,2.12 L14.03,0.12 C13.1177506,-0.132500928 12.142739,0.182018946 11.55,0.92 L0.39,16.28 C-0.127812354,17.0693216 -0.127812354,18.0906784 0.39,18.88 L11.55,34.17 C12.142739,34.9079811 13.1177506,35.2225009 14.03,34.97 L20.14,32.97 L8.98,17.67 L20.28,2.12 Z"/>
    <path fill="#305182" d="M33.61,27.04 L33.61,8.04 C33.5672314,7.09420025 32.9656702,6.26459623 32.08,5.93 L23.22,3.05 L12.56,17.65 L23.09,32.05 L32.09,29.13 C32.9653371,28.7951487 33.5611372,27.9759235 33.61,27.04 L33.61,27.04 Z"/>
    <path fill="#2F3640" d="M61.49,30.31 C61.76,30.66 61.65,31.06 61.13,31.06 L57.98,31.06 C57.4949892,31.026564 57.0626932,30.7421587 56.84,30.31 L48.05,19.17 L47.05,19.17 L47.05,30.33 C47.05,30.84 46.85,31.08 46.3,31.08 L43.89,31.08 C43.38,31.08 43.18,30.84 43.18,30.33 L43.18,4.99 C43.18,4.48 43.38,4.24 43.89,4.24 L46.3,4.24 C46.85,4.24 47.05,4.48 47.05,4.99 L47.05,16.27 L47.98,16.27 L56.22,4.99 C56.4913256,4.5673511 56.9403814,4.29129225 57.44,4.24 L60.04,4.24 C60.55,4.24 60.67,4.6 60.39,4.99 L51.24,17.45 L61.49,30.31 Z"/>
    <path fill="#2F3640" d="M61.5 17.28C61.5 14.2 63.72 12.13 69.02 12.13 74.32 12.13 76.53 14.19 76.53 17.28L76.53 26.17C76.53 29.25 74.31 31.31 69.02 31.31 63.73 31.31 61.5 29.25 61.5 26.17L61.5 17.28zM72.95 17.58C72.95 15.97 71.83 15.07 69.01 15.07 66.19 15.07 65.07 15.97 65.07 17.58L65.07 25.92C65.07 27.54 66.2 28.44 69.01 28.44 71.82 28.44 72.95 27.54 72.95 25.92L72.95 17.58zM90.83 29.22C89.1577723 30.6409497 87.02401 31.4019916 84.83 31.36 81.37 31.36 79.54 29.36 79.54 26.59L79.54 13.17C79.54 12.64 79.73 12.42 80.22 12.42L82.4 12.42C82.89 12.42 83.11 12.65 83.11 13.17L83.11 25.68C83.11 27.26 83.82 28.16 85.89 28.16 87.6838913 28.1103197 89.4064415 27.4467142 90.77 26.28L90.77 13.17C90.77 12.64 90.96 12.42 91.45 12.42L93.67 12.42C94.15 12.42 94.34 12.65 94.34 13.17L94.34 30.33C94.34 30.85 94.15 31.04 93.67 31.04L91.67 31.04C91.14 31.04 90.99 30.85 90.96 30.33L90.83 29.22zM100.29 12.43C100.81 12.43 100.96 12.66 101 13.14L101.07 14.34C102.815447 12.8738468 105.030743 12.0857128 107.31 12.12 110.8 12.12 112.61 14.12 112.61 16.93L112.61 30.3C112.61 30.82 112.42 31.05 111.93 31.05L109.75 31.05C109.26 31.05 109.03 30.82 109.03 30.3L109.03 17.8C109.03 16.26 108.32 15.32 106.25 15.32 104.383067 15.3866341 102.588892 16.0607666 101.14 17.24L101.14 30.3C101.14 30.82 100.95 31.05 100.47 31.05L98.29 31.05C97.77 31.05 97.57 30.82 97.57 30.3L97.57 13.17C97.57 12.68 97.76 12.46 98.29 12.46L100.29 12.43zM124.21 12.51C124.7 12.51 124.93 12.7 124.93 13.19L124.93 14.69C124.93 15.22 124.7 15.44 124.21 15.44L120.34 15.44 120.34 25.54C120.34 27.12 121.34 28.02 124.13 28.02L124.84 28.02C125.33 28.02 125.55 28.24 125.55 28.77L125.55 30.35C125.55 30.87 125.33 31.06 124.84 31.06L123.6 31.06C118.31 31.06 116.73 29.22 116.73 25.91L116.73 15.44 114.66 15.44C114.14 15.44 113.95 15.21 113.95 14.69L113.95 13.38C113.95 12.89 114.14 12.7 114.66 12.67L116.5 12.52 116.72 12.52 116.72 8.73C116.72 8.21 116.95 7.98 117.43 7.98L119.65 7.98C120.14 7.98 120.33 8.21 120.33 8.73L120.33 12.52 124.21 12.51zM131.48 9.62C131.48 10.43 131.14 11.54 128.48 11.54 125.82 11.54 125.48 10.43 125.48 9.62L125.48 7.3C125.48 6.49 125.84 5.38 128.48 5.38 131.12 5.38 131.48 6.49 131.48 7.3L131.48 9.62zM130.66 7.23C130.66 6.67 130.26 6.12 128.49 6.12 126.72 6.12 126.3 6.66 126.3 7.23L126.3 9.7C126.3 10.26 126.71 10.81 128.49 10.81 130.27 10.81 130.66 10.27 130.66 9.71L130.66 7.23zM129.42 8.89L129.88 10.03C129.88 10.13 129.88 10.21 129.71 10.21L129.22 10.21C129.11 10.21 129.1 10.15 129.05 10.03L128.62 9.03 127.98 9.03 127.98 10.03C127.98 10.15 127.98 10.21 127.81 10.21L127.31 10.21C127.19 10.21 127.14 10.15 127.14 10.03L127.14 6.95C127.14 6.82 127.19 6.77 127.31 6.77L128.65 6.77C129.74 6.77 129.97 7.29 129.97 7.77L129.97 8.03C129.996272 8.40897697 129.773614 8.76118118 129.42 8.9L129.42 8.89zM127.97 7.4L127.97 8.4 128.56 8.4C128.89 8.4 129.12 8.24 129.12 8.01L129.12 7.82C129.12 7.56 128.9 7.41 128.56 7.41L127.97 7.4z"/>
  </g>
</svg>
