<svg id="Layer_1" data-name="Layer 1" xmlns="http://www.w3.org/2000/svg" viewBox="0 0 222.55 35.11"><defs><style>.cls-1{fill:#0096aa;}.cls-2{fill:#305182;}.cls-3{fill:#2f3640;}.cls-4{fill:#c1b8b3;}</style></defs><title>logo_tagline</title><path class="cls-1" d="M304.3,151.65l-6.25-2a2.37,2.37,0,0,0-2.48.8l-11.16,15.36a2.37,2.37,0,0,0,0,2.6l11.16,15.36a2.37,2.37,0,0,0,2.48.8l6.11-2L293,167.2Z" transform="translate(-284.02 -149.53)"/><path class="cls-2" d="M317.63,176.57v-19a2.37,2.37,0,0,0-1.53-2.11l-8.86-2.88-10.66,14.6,10.53,14.4,9-2.92A2.37,2.37,0,0,0,317.63,176.57Z" transform="translate(-284.02 -149.53)"/><path class="cls-3" d="M345.51,179.84c.27.35.16.75-.36.75H342a1.39,1.39,0,0,1-1.14-.75l-8.83-11.16h-1v11.16c0,.51-.2.75-.75.75h-2.41c-.51,0-.71-.24-.71-.75V154.52c0-.51.2-.75.71-.75h2.41c.55,0,.75.24.75.75V165.8H332l8.24-11.28a1.65,1.65,0,0,1,1.22-.75h2.6c.51,0,.63.36.35.75L335.3,167Z" transform="translate(-284.02 -149.53)"/><path class="cls-3" d="M345.52,166.81c0-3.08,2.22-5.15,7.52-5.15s7.51,2.06,7.51,5.15v8.94c0,3.08-2.22,5.14-7.51,5.14s-7.52-2.06-7.52-5.14Zm11.45.3c0-1.61-1.12-2.51-3.94-2.51s-3.94.9-3.94,2.51v8.34c0,1.62,1.13,2.52,3.94,2.52s3.94-.9,3.94-2.52Z" transform="translate(-284.02 -149.53)"/><path class="cls-3" d="M374.85,178.75a9,9,0,0,1-6,2.14c-3.46,0-5.29-2-5.29-4.77V162.72c0-.53.19-.75.68-.75h2.18c.49,0,.71.23.71.75v12.51c0,1.58.71,2.48,2.78,2.48a7.84,7.84,0,0,0,4.88-1.88v-13.1c0-.53.19-.75.68-.75h2.22c.48,0,.67.23.67.75v17.16c0,.52-.19.71-.67.71h-2c-.53,0-.68-.19-.71-.71Z" transform="translate(-284.02 -149.53)"/><path class="cls-3" d="M384.31,162c.52,0,.67.23.71.71l.07,1.2a9.48,9.48,0,0,1,6.24-2.22c3.49,0,5.3,2,5.3,4.81v13.37c0,.52-.19.75-.68.75h-2.18c-.49,0-.72-.23-.72-.75V167.33c0-1.54-.71-2.48-2.78-2.48a8.58,8.58,0,0,0-5.11,1.92v13.06c0,.52-.19.75-.67.75h-2.18c-.52,0-.72-.23-.72-.75V162.68c0-.49.19-.71.72-.71Z" transform="translate(-284.02 -149.53)"/><path class="cls-3" d="M408.23,162c.49,0,.72.19.72.68v1.5c0,.53-.23.75-.72.75h-3.87v10.1c0,1.58,1,2.48,3.79,2.48h.71c.49,0,.71.22.71.75v1.58c0,.52-.22.71-.71.71h-1.24c-5.29,0-6.87-1.84-6.87-5.15V165h-2.07c-.52,0-.71-.23-.71-.75V162.9c0-.49.19-.68.71-.71l1.84-.15h.22v-3.79c0-.52.23-.75.71-.75h2.22c.49,0,.68.23.68.75V162Z" transform="translate(-284.02 -149.53)"/><path class="cls-3" d="M415.5,159.15c0,.81-.34,1.92-3,1.92s-3-1.11-3-1.92v-2.32c0-.81.36-1.92,3-1.92s3,1.11,3,1.92Zm-.82-2.39c0-.56-.4-1.11-2.17-1.11s-2.19.54-2.19,1.11v2.47c0,.56.41,1.11,2.19,1.11s2.17-.54,2.17-1.1Zm-1.24,1.66.46,1.14c0,.1,0,.18-.17.18h-.49c-.11,0-.12-.06-.17-.18l-.43-1H412v1c0,.12,0,.18-.17.18h-.5c-.12,0-.17-.06-.17-.18v-3.08c0-.13.05-.18.17-.18h1.34c1.09,0,1.32.52,1.32,1v.26a.87.87,0,0,1-.55.87m-1.45-1.5v1h.59c.33,0,.56-.16.56-.39v-.19c0-.26-.22-.41-.56-.41Z" transform="translate(-284.02 -149.53)"/><path class="cls-4" d="M422.48,158.56h4.6c2.34,0,3.41.9,3.41,2.55a2.05,2.05,0,0,1-1.92,2.12h0a2.2,2.2,0,0,1,2.16,2.22c0,1.63-1.16,2.55-3.44,2.55h-4.82Zm4.16,3.87q1.33,0,1.33-1t-1.33-1h-1.78v2.06Zm.24,3.86c.89,0,1.33-.37,1.33-1.06s-.44-1-1.33-1h-2v2.09Z" transform="translate(-284.02 -149.53)"/><path class="cls-4" d="M439.19,164.44a3.78,3.78,0,1,1-3.78-3.73A3.43,3.43,0,0,1,439.19,164.44Zm-5.13,0c0,1.4.44,2,1.35,2s1.35-.59,1.35-2-.44-2-1.35-2S434.06,163,434.06,164.44Z" transform="translate(-284.02 -149.53)"/><path class="cls-4" d="M447.67,164.44a3.78,3.78,0,1,1-3.78-3.73A3.43,3.43,0,0,1,447.67,164.44Zm-5.13,0c0,1.4.44,2,1.35,2s1.35-.59,1.35-2-.44-2-1.35-2S442.54,163,442.54,164.44Z" transform="translate(-284.02 -149.53)"/><path class="cls-4" d="M448.41,166.91l1.26-1.38a2.31,2.31,0,0,0,2.12,1c.67,0,1.07-.2,1.07-.5s-.34-.44-1.3-.64c-2.18-.43-3-1.13-3-2.31s1.12-2.38,3.45-2.38a3.65,3.65,0,0,1,3.28,1.35l-1.26,1.23a2.16,2.16,0,0,0-1.95-1c-.72,0-1.09.26-1.09.54s.32.47,1.32.66c2.12.37,3,1,3,2.28s-1.1,2.35-3.41,2.35A4.28,4.28,0,0,1,448.41,166.91Z" transform="translate(-284.02 -149.53)"/><path class="cls-4" d="M461.63,167.62a3.81,3.81,0,0,1-2,.54c-1.62,0-2.62-.63-2.64-2.29v-3.28h-1.23v-1.73H457v-1.6l2.44-.67v2.28h2.15v1.73h-2.15v2.88a.83.83,0,0,0,.95,1,1.67,1.67,0,0,0,1-.32Z" transform="translate(-284.02 -149.53)"/><path class="cls-4" d="M474.42,160.13l-1.39,1.6a2.89,2.89,0,0,0-2.64-1.39c-1,0-1.55.4-1.55.95s.52.75,1.86,1c2.62.47,3.64,1.32,3.64,3,0,1.85-1.72,2.91-4,2.91s-3.41-.57-4.34-1.61l1.26-1.72a3.24,3.24,0,0,0,3,1.4c1.06,0,1.58-.31,1.58-.86s-.54-.69-1.83-.93c-2.24-.45-3.68-1.1-3.68-3s1.48-3.08,4.07-3.08A4.93,4.93,0,0,1,474.42,160.13Z" transform="translate(-284.02 -149.53)"/><path class="cls-4" d="M482.88,166.58l-.19,1.36a2,2,0,0,1-1,.23c-1,0-1.63-.33-1.85-1.1a2.72,2.72,0,0,1-2.55,1.1c-1.42,0-2.22-.63-2.22-1.79s.76-1.95,2.79-2.35l1.62-.32v-.26a1,1,0,0,0-1-1.06,1.19,1.19,0,0,0-1.33,1.1l-2-.57c.24-1.36,1.36-2.21,3.31-2.21,2.21,0,3.43.9,3.43,2.75v2.61q0,.56.52.56A1.39,1.39,0,0,0,482.88,166.58Zm-3.37-1V165l-1.16.27c-.6.14-.85.34-.85.75s.26.62.7.62C478.8,166.59,479.51,166.23,479.51,165.57Z" transform="translate(-284.02 -149.53)"/><path class="cls-4" d="M486.1,165.54c0,.63.16.89.66.89a2.07,2.07,0,0,0,.73-.13l-.16,1.51a3.14,3.14,0,0,1-1.49.36c-1.53,0-2.18-.67-2.18-2.26v-8.08h2.44Z" transform="translate(-284.02 -149.53)"/><path class="cls-4" d="M495.14,165.14h-4.89a1.38,1.38,0,0,0,1.51,1.3,1.22,1.22,0,0,0,1.32-.79l2,.63c-.42,1.25-1.63,1.88-3.3,1.88-2.51,0-3.87-1.36-3.87-3.73a3.39,3.39,0,0,1,3.74-3.73,3.27,3.27,0,0,1,3.58,3.63A4.52,4.52,0,0,1,495.14,165.14Zm-4.9-1.32h2.69c-.11-.92-.56-1.41-1.32-1.41S490.39,162.86,490.24,163.82Z" transform="translate(-284.02 -149.53)"/><path class="cls-4" d="M495.9,166.91l1.26-1.38a2.31,2.31,0,0,0,2.12,1c.67,0,1.07-.2,1.07-.5s-.34-.44-1.3-.64c-2.18-.43-3-1.13-3-2.31s1.12-2.38,3.45-2.38a3.65,3.65,0,0,1,3.28,1.35l-1.26,1.23a2.16,2.16,0,0,0-1.95-1c-.72,0-1.09.26-1.09.54s.32.47,1.32.66c2.12.37,3,1,3,2.28s-1.1,2.35-3.41,2.35A4.28,4.28,0,0,1,495.9,166.91Z" transform="translate(-284.02 -149.53)"/><path class="cls-4" d="M506.57,166.86a1.44,1.44,0,1,1-1.43-1.3A1.26,1.26,0,0,1,506.57,166.86Z" transform="translate(-284.02 -149.53)"/><path class="cls-4" d="M422.48,171h4.6c2.34,0,3.41.9,3.41,2.55a2.05,2.05,0,0,1-1.92,2.12h0a2.2,2.2,0,0,1,2.16,2.22c0,1.63-1.16,2.55-3.44,2.55h-4.82Zm4.16,3.87q1.33,0,1.33-1t-1.33-1h-1.78v2.06Zm.24,3.86c.89,0,1.33-.37,1.33-1.06s-.44-1-1.33-1h-2v2.09Z" transform="translate(-284.02 -149.53)"/><path class="cls-4" d="M438.87,177.56H434a1.38,1.38,0,0,0,1.51,1.3,1.22,1.22,0,0,0,1.32-.79l2,.63c-.42,1.25-1.63,1.88-3.3,1.88-2.51,0-3.87-1.36-3.87-3.73a3.39,3.39,0,0,1,3.74-3.73,3.27,3.27,0,0,1,3.58,3.63A4.52,4.52,0,0,1,438.87,177.56Zm-4.9-1.32h2.69c-.11-.92-.56-1.41-1.32-1.41S434.12,175.29,434,176.25Z" transform="translate(-284.02 -149.53)"/><path class="cls-4" d="M447.53,179l-.19,1.36a2,2,0,0,1-1,.23c-1,0-1.63-.33-1.85-1.1a2.72,2.72,0,0,1-2.55,1.1c-1.42,0-2.22-.63-2.22-1.79s.76-1.95,2.79-2.35l1.62-.32v-.26a1,1,0,0,0-1-1.06,1.19,1.19,0,0,0-1.33,1.1l-2-.57c.24-1.36,1.36-2.21,3.31-2.21,2.21,0,3.43.9,3.43,2.75v2.61q0,.56.52.56A1.39,1.39,0,0,0,447.53,179Zm-3.37-1v-.62l-1.16.27c-.6.14-.85.34-.85.75s.26.62.7.62C443.46,179,444.16,178.65,444.16,178Z" transform="translate(-284.02 -149.53)"/><path class="cls-4" d="M453.26,180a3.81,3.81,0,0,1-2,.54c-1.62,0-2.62-.63-2.64-2.29V175h-1.23v-1.73h1.23v-1.6L451,171v2.28h2.15V175H451v2.88a.83.83,0,0,0,.95,1,1.67,1.67,0,0,0,1-.32Z" transform="translate(-284.02 -149.53)"/><path class="cls-4" d="M460.75,172.89v2h3.9v1.91h-3.9v3.64h-2.47V171h7.35v1.91Z" transform="translate(-284.02 -149.53)"/><path class="cls-4" d="M471.71,173.29l-.26,2.06a1.87,1.87,0,0,0-.9-.21,1.55,1.55,0,0,0-1.61,1.69v3.61h-2.44v-7.17h2.15l.1,1.55a2.18,2.18,0,0,1,2.18-1.69A1.65,1.65,0,0,1,471.71,173.29Z" transform="translate(-284.02 -149.53)"/><path class="cls-4" d="M479.81,179l-.19,1.36a2,2,0,0,1-1,.23c-1,0-1.63-.33-1.85-1.1a2.72,2.72,0,0,1-2.55,1.1c-1.42,0-2.22-.63-2.22-1.79s.76-1.95,2.79-2.35l1.62-.32v-.26a1,1,0,0,0-1-1.06,1.19,1.19,0,0,0-1.33,1.1l-2-.57c.24-1.36,1.36-2.21,3.31-2.21,2.21,0,3.43.9,3.43,2.75v2.61q0,.56.52.56A1.39,1.39,0,0,0,479.81,179Zm-3.37-1v-.62l-1.16.27c-.6.14-.85.34-.85.75s.26.62.7.62C475.74,179,476.44,178.65,476.44,178Z" transform="translate(-284.02 -149.53)"/><path class="cls-4" d="M487.76,173.28v7.17h-2.18l-.07-1.33a2.5,2.5,0,0,1-2.48,1.48,2.22,2.22,0,0,1-2.45-2.52v-4.79H483v4.17c0,1,.36,1.28,1,1.28s1.32-.5,1.32-1.65v-3.8Z" transform="translate(-284.02 -149.53)"/><path class="cls-4" d="M496.63,170.24v10.2h-2.19l-.09-1.36a2.49,2.49,0,0,1-2.34,1.51c-1.85,0-3-1.36-3-3.7s1.12-3.75,3-3.75a2.29,2.29,0,0,1,2.16,1.35v-4.24Zm-2.44,6.91v-.57c-.06-1.06-.54-1.65-1.33-1.65s-1.35.59-1.35,1.93.52,1.94,1.35,1.94S494.14,178.24,494.2,177.15Z" transform="translate(-284.02 -149.53)"/><path class="cls-4" d="M500.86,179.28a1.44,1.44,0,1,1-1.43-1.3A1.26,1.26,0,0,1,500.86,179.28Z" transform="translate(-284.02 -149.53)"/></svg>